<svg width="116" height="123" viewBox="0 0 116 123" fill="none" xmlns="http://www.w3.org/2000/svg">
<path d="M106.3 61.2L8.69995 46.2C4.59995 46.2 1.19995 42.8 1.19995 38.7C1.19995 34.6 4.59995 31.2 8.69995 31.2H91.2C99.5 31.2 106.2 37.9 106.2 46.2V61.2H106.3Z" fill="#E8E8E8"/>
<path d="M106.3 62.4C106.2 62.4 106.2 62.4 106.1 62.4L8.7 47.4C3.9 47.3 0 43.4 0 38.7C0 33.9 3.9 29.9 8.8 29.9H91.3C100.3 29.9 107.5 37.2 107.5 46.1V61.1C107.5 61.5 107.3 61.8 107.1 62C106.8 62.3 106.5 62.4 106.3 62.4ZM8.7 32.4C5.3 32.4 2.5 35.2 2.5 38.6C2.5 42 5.3 44.8 8.7 44.8C8.8 44.8 8.8 44.8 8.9 44.8L105 59.6V46.2C105 38.6 98.8 32.4 91.2 32.4H8.7Z" fill="#62355C"/>
<path d="M106.3 53.7H98.3999V68.7H106.3C110.4 68.7 113.8 65.3 113.8 61.2C113.7 57.1 110.4 53.7 106.3 53.7Z" fill="#E8E8E8"/>
<path d="M106.3 70H98.4C97.7 70 97.2 69.4 97.2 68.8V53.8C97.2 53.1 97.8 52.6 98.4 52.6H106.3C111.1 52.6 115.1 56.5 115.1 61.4C115.1 66.3 111.1 70 106.3 70ZM99.6 67.4H106.3C109.7 67.4 112.5 64.6 112.5 61.2C112.5 57.8 109.7 55 106.3 55H99.6V67.4Z" fill="#62355C"/>
<path d="M53.7 53.6C68.1699 53.6 79.9 41.8699 79.9 27.4C79.9 12.9302 68.1699 1.20001 53.7 1.20001C39.2301 1.20001 27.5 12.9302 27.5 27.4C27.5 41.8699 39.2301 53.6 53.7 53.6Z" fill="#F6CD29"/>
<path d="M53.7 53.6C68.1699 53.6 79.9 41.8699 79.9 27.4C79.9 12.9302 68.1699 1.20001 53.7 1.20001C39.2301 1.20001 27.5 12.9302 27.5 27.4C27.5 41.8699 39.2301 53.6 53.7 53.6Z" fill="#FEE444"/>
<path d="M53.7 55C38.5 55 26.2 42.7 26.2 27.5C26.2 12.3 38.6 0 53.7 0C68.7999 0 81.1999 12.3 81.1999 27.5C81.1999 42.7 68.9 55 53.7 55ZM53.7 2.4C39.9 2.4 28.7 13.6 28.7 27.4C28.7 41.2 39.9 52.4 53.7 52.4C67.5 52.4 78.6999 41.2 78.6999 27.4C78.6999 13.6 67.5 2.4 53.7 2.4Z" fill="#62355C"/>
<g opacity="0.3">
<path opacity="0.3" d="M53.6999 7.10001C42.4999 7.10001 33.3999 16.2 33.3999 27.4C33.3999 38.6 42.4999 47.8 53.6999 47.8C64.8999 47.8 73.9999 38.7 73.9999 27.5C73.9999 16.3 64.9999 7.10001 53.6999 7.10001Z" fill="#F6F7F6"/>
</g>
<path d="M53.6999 49C41.7999 49 32.0999 39.3 32.0999 27.4C32.0999 15.5 41.7999 5.89999 53.6999 5.89999C65.5999 5.89999 75.2999 15.6 75.2999 27.5C75.2999 39.4 65.6999 49 53.6999 49ZM53.6999 8.39999C43.1999 8.39999 34.5999 17 34.5999 27.5C34.5999 38 43.1999 46.6 53.6999 46.6C64.1999 46.6 72.7999 38 72.7999 27.5C72.7999 17 64.2999 8.39999 53.6999 8.39999Z" fill="#62355C"/>
<path d="M57.8999 27.6C57.1999 27.2 56.4999 26.8 55.5999 26.6C54.8999 26.4 54.1999 26.2 53.3999 26C52.6999 25.8 52.0999 25.6 51.4999 25.4C50.9999 25.2 50.5999 24.9 50.1999 24.6C49.8999 24.3 49.5999 24 49.3999 23.5C49.2999 23.2 49.0999 22.6 49.0999 21.7C49.0999 21.2 49.1999 20.7 49.3999 20.2C49.5999 19.7 49.7999 19.3 50.1999 19C50.4999 18.6 50.9999 18.3 51.5999 18.1C52.1999 17.9 52.8999 17.7 53.6999 17.7C54.4999 17.7 55.1999 17.8 55.6999 18.1C56.1999 18.3 56.6999 18.7 56.9999 19C57.2999 19.4 57.5999 19.9 57.7999 20.4C57.9999 21 58.5999 21.3 59.2999 21.1C59.8999 20.9 60.1999 20.3 59.9999 19.6C59.6999 18.8 59.2999 18 58.7999 17.4C58.1999 16.7 57.4999 16.2 56.6999 15.8C56.1999 15.6 55.4999 15.4 54.8999 15.3V14.5C54.8999 13.9 54.3999 13.3 53.6999 13.3C53.0999 13.3 52.4999 13.8 52.4999 14.5V15.3C51.7999 15.4 51.1999 15.5 50.6999 15.8C49.7999 16.2 49.0999 16.6 48.5999 17.2C47.9999 17.8 47.5999 18.5 47.2999 19.2C46.9999 19.9 46.8999 20.7 46.8999 21.5C46.8999 22.6 47.0999 23.6 47.3999 24.3C47.6999 25.1 48.1999 25.7 48.7999 26.2C49.3999 26.7 49.9999 27.1 50.7999 27.4C51.4999 27.7 52.1999 27.9 52.9999 28.1C53.6999 28.3 54.3999 28.5 55.0999 28.7C55.6999 28.9 56.2999 29.2 56.7999 29.5C57.2999 29.8 57.6999 30.2 57.9999 30.7C58.2999 31.2 58.4999 31.9 58.4999 32.7C58.4999 33.3 58.3999 33.9 58.1999 34.4C57.9999 34.9 57.7999 35.4 57.3999 35.8C57.0999 36.2 56.5999 36.5 56.0999 36.7C55.5999 36.9 54.8999 37 54.0999 37C53.3999 37 52.7999 36.9 52.2999 36.7C51.6999 36.5 51.2999 36.2 50.7999 35.8C50.3999 35.4 49.9999 34.9 49.6999 34.2C49.3999 33.6 48.7999 33.3 48.1999 33.6C47.5999 33.9 47.2999 34.5 47.5999 35.1C47.9999 36.1 48.5999 36.9 49.2999 37.5C49.9999 38.1 50.7999 38.6 51.5999 38.9C51.8999 39 52.2999 39.1 52.6999 39.2V40.1C52.6999 40.7 53.1999 41.3 53.8999 41.3C54.4999 41.3 55.0999 40.8 55.0999 40.1V39.3C55.7999 39.2 56.4999 39.1 57.0999 38.8C57.9999 38.4 58.6999 37.9 59.2999 37.3C59.8999 36.7 60.2999 35.9 60.5999 35.1C60.8999 34.3 60.9999 33.5 60.9999 32.7C60.9999 31.4 60.6999 30.3 60.1999 29.5C59.2999 28.8 58.6999 28.1 57.8999 27.6Z" fill="#62355C"/>
<path opacity="0.2" d="M29.3999 37.2C33.2999 46.9 42.6999 53.7 53.7999 53.7C64.8999 53.7 74.1999 46.9 78.0999 37.2H29.3999Z" fill="#593055"/>
<path d="M91.3 46.2H16.3H8.80005C4.70005 46.2 1.30005 42.8 1.30005 38.7V61.2V106.2C1.30005 114.5 8.00005 121.2 16.3 121.2H91.3C99.6001 121.2 106.3 114.5 106.3 106.2V61.2C106.3 52.9 99.5 46.2 91.3 46.2Z" fill="#938993"/>
<path opacity="0.2" d="M13.3 106.2V61.2V46.2H8.80005C4.70005 46.2 1.30005 42.8 1.30005 38.7V61.2V106.2C1.30005 114.5 8.00005 121.2 16.3 121.2H28.3C20 121.2 13.3 114.5 13.3 106.2Z" fill="#593055"/>
<path d="M91.3001 122.4H16.3001C7.3001 122.4 0.100098 115.1 0.100098 106.2V38.7C0.100098 38 0.700098 37.5 1.3001 37.5C1.9001 37.5 2.5001 38 2.5001 38.7C2.5001 42.1 5.3001 44.9 8.7001 44.9H91.2001C100.2 44.9 107.4 52.2 107.4 61.1V106.1C107.5 115.2 100.2 122.4 91.3001 122.4ZM2.5001 44.8V106.2C2.5001 113.8 8.7001 120 16.3001 120H91.3001C98.9001 120 105.1 113.8 105.1 106.2V61.2C105.1 53.6 98.9001 47.4 91.3001 47.4H8.7001C6.3001 47.4 4.1001 46.4 2.5001 44.8Z" fill="#62355C"/>
<path d="M106.3 68.7H98.4001H91.7001C83.7001 68.7 76.8001 74.7 76.3001 82.7C75.8001 90.3 81.0001 96.8 88.1001 98.3H106.4C110.5 98.3 113.9 94.9 113.9 90.8V68.7V61.2C113.7 65.3 110.4 68.7 106.3 68.7Z" fill="#65C5B4"/>
<path d="M106.3 68.7H98.4H91.7C83.7 68.7 76.8 74.7 76.3 82.7C76.1 86 76.9 89.1 78.5 91.6C81.2 95.9 86.1 98.3 91.2 98.3H106.3C110.4 98.3 113.8 94.9 113.8 90.8V68.7V61.2C113.7 65.3 110.4 68.7 106.3 68.7Z" fill="#E8E8E8"/>
<path d="M106.3 99.6H91.2C85.5 99.6 80.2 96.8 77.4 92.3C75.6 89.4 74.8 86.1 75 82.7C75.5 74.2 82.9 67.5 91.7 67.5H106.3C109.7 67.5 112.5 64.7 112.5 61.3C112.5 60.6 113.1 60.1 113.7 60.1C114.3 60.1 114.9 60.7 114.9 61.3V91C115 95.7 111.1 99.6 106.3 99.6ZM91.6 70C84.1 70 77.9 75.6 77.4 82.9C77.2 85.8 77.9 88.6 79.4 91.1C81.8 94.9 86.2 97.2 91.1 97.2H106.2C109.6 97.2 112.4 94.4 112.4 91V67.3C110.8 68.9 108.6 69.9 106.2 69.9H91.6V70Z" fill="#62355C"/>
<path d="M91.2 91.2C95.3421 91.2 98.7 87.8421 98.7 83.7C98.7 79.5579 95.3421 76.2 91.2 76.2C87.0578 76.2 83.7 79.5579 83.7 83.7C83.7 87.8421 87.0578 91.2 91.2 91.2Z" fill="#FEE444"/>
<path d="M91.2 91.2C95.3421 91.2 98.7 87.8421 98.7 83.7C98.7 79.5579 95.3421 76.2 91.2 76.2C87.0578 76.2 83.7 79.5579 83.7 83.7C83.7 87.8421 87.0578 91.2 91.2 91.2Z" fill="#65C5B4"/>
<path d="M91.1999 92.4C86.3999 92.4 82.3999 88.5 82.3999 83.6C82.3999 78.7 86.2999 74.8 91.1999 74.8C96.0999 74.8 99.9999 78.7 99.9999 83.6C99.9999 88.5 95.9999 92.4 91.1999 92.4ZM91.1999 77.4C87.7999 77.4 84.9999 80.2 84.9999 83.6C84.9999 87 87.7999 89.8 91.1999 89.8C94.5999 89.8 97.3999 87 97.3999 83.6C97.3999 80.2 94.5999 77.4 91.1999 77.4Z" fill="#62355C"/>
</svg>
