<svg width="553" height="128" viewBox="0 0 553 128" fill="none" xmlns="http://www.w3.org/2000/svg">
<path d="M112.8 64L15.2 49C11.1 49 7.69995 45.6 7.69995 41.5C7.69995 37.4 11.1 34 15.2 34H97.7C106 34 112.7 40.7 112.7 49V64H112.8Z" fill="#E8E8E8"/>
<path d="M112.8 65.2C112.7 65.2 112.7 65.2 112.6 65.2L15.2 50.2C10.4 50.1 6.5 46.2 6.5 41.5C6.5 36.7 10.4 32.7 15.3 32.7H97.8C106.8 32.7 114 40 114 48.9V63.9C114 64.3 113.8 64.6 113.6 64.8C113.3 65.1 113 65.2 112.8 65.2ZM15.2 35.2C11.8 35.2 9 38 9 41.4C9 44.8 11.8 47.6 15.2 47.6C15.3 47.6 15.3 47.6 15.4 47.6L111.5 62.4V49C111.5 41.4 105.3 35.2 97.7 35.2H15.2Z" fill="#62355C"/>
<path d="M112.8 56.5H104.9V71.5H112.8C116.9 71.5 120.3 68.1 120.3 64C120.2 59.9 116.9 56.5 112.8 56.5Z" fill="#E8E8E8"/>
<path d="M112.8 72.8H104.9C104.2 72.8 103.7 72.2 103.7 71.6V56.6C103.7 55.9 104.3 55.4 104.9 55.4H112.8C117.6 55.4 121.6 59.3 121.6 64.2C121.6 69.1 117.6 72.8 112.8 72.8ZM106.1 70.2H112.8C116.2 70.2 119 67.4 119 64C119 60.6 116.2 57.8 112.8 57.8H106.1V70.2Z" fill="#62355C"/>
<path d="M60.2 56.4C74.6699 56.4 86.4 44.6699 86.4 30.2C86.4 15.7301 74.6699 4 60.2 4C45.7301 4 34 15.7301 34 30.2C34 44.6699 45.7301 56.4 60.2 56.4Z" fill="#F6CD29"/>
<path d="M60.2 56.4C74.6699 56.4 86.4 44.6699 86.4 30.2C86.4 15.7301 74.6699 4 60.2 4C45.7301 4 34 15.7301 34 30.2C34 44.6699 45.7301 56.4 60.2 56.4Z" fill="#FEE444"/>
<path d="M60.2 57.8C45 57.8 32.7 45.5 32.7 30.3C32.7 15.1 45.1 2.8 60.2 2.8C75.2999 2.8 87.6999 15.1 87.6999 30.3C87.6999 45.5 75.4 57.8 60.2 57.8ZM60.2 5.2C46.4 5.2 35.2 16.4 35.2 30.2C35.2 44 46.4 55.2 60.2 55.2C74 55.2 85.1999 44 85.1999 30.2C85.1999 16.4 74 5.2 60.2 5.2Z" fill="#62355C"/>
<g opacity="0.3">
<path opacity="0.3" d="M60.1999 9.9C48.9999 9.9 39.8999 19 39.8999 30.2C39.8999 41.4 48.9999 50.6 60.1999 50.6C71.3999 50.6 80.4999 41.5 80.4999 30.3C80.4999 19.1 71.4999 9.9 60.1999 9.9Z" fill="#F6F7F6"/>
</g>
<path d="M60.1999 51.8C48.2999 51.8 38.5999 42.1 38.5999 30.2C38.5999 18.3 48.2999 8.7 60.1999 8.7C72.0999 8.7 81.7999 18.4 81.7999 30.3C81.7999 42.2 72.1999 51.8 60.1999 51.8ZM60.1999 11.2C49.6999 11.2 41.0999 19.8 41.0999 30.3C41.0999 40.8 49.6999 49.4 60.1999 49.4C70.6999 49.4 79.2999 40.8 79.2999 30.3C79.2999 19.8 70.7999 11.2 60.1999 11.2Z" fill="#62355C"/>
<path d="M64.3999 30.4C63.6999 30 62.9999 29.6 62.0999 29.4C61.3999 29.2 60.6999 29 59.8999 28.8C59.1999 28.6 58.5999 28.4 57.9999 28.2C57.4999 28 57.0999 27.7 56.6999 27.4C56.3999 27.1 56.0999 26.8 55.8999 26.3C55.7999 26 55.5999 25.4 55.5999 24.5C55.5999 24 55.6999 23.5 55.8999 23C56.0999 22.5 56.2999 22.1 56.6999 21.8C56.9999 21.4 57.4999 21.1 58.0999 20.9C58.6999 20.7 59.3999 20.5 60.1999 20.5C60.9999 20.5 61.6999 20.6 62.1999 20.9C62.6999 21.1 63.1999 21.5 63.4999 21.8C63.7999 22.2 64.0999 22.7 64.2999 23.2C64.4999 23.8 65.0999 24.1 65.7999 23.9C66.3999 23.7 66.6999 23.1 66.4999 22.4C66.1999 21.6 65.7999 20.8 65.2999 20.2C64.6999 19.5 63.9999 19 63.1999 18.6C62.6999 18.4 61.9999 18.2 61.3999 18.1V17.3C61.3999 16.7 60.8999 16.1 60.1999 16.1C59.5999 16.1 58.9999 16.6 58.9999 17.3V18.1C58.2999 18.2 57.6999 18.3 57.1999 18.6C56.2999 19 55.5999 19.4 55.0999 20C54.4999 20.6 54.0999 21.3 53.7999 22C53.4999 22.7 53.3999 23.5 53.3999 24.3C53.3999 25.4 53.5999 26.4 53.8999 27.1C54.1999 27.9 54.6999 28.5 55.2999 29C55.8999 29.5 56.4999 29.9 57.2999 30.2C57.9999 30.5 58.6999 30.7 59.4999 30.9C60.1999 31.1 60.8999 31.3 61.5999 31.5C62.1999 31.7 62.7999 32 63.2999 32.3C63.7999 32.6 64.1999 33 64.4999 33.5C64.7999 34 64.9999 34.7 64.9999 35.5C64.9999 36.1 64.8999 36.7 64.6999 37.2C64.4999 37.7 64.2999 38.2 63.8999 38.6C63.5999 39 63.0999 39.3 62.5999 39.5C62.0999 39.7 61.3999 39.8 60.5999 39.8C59.8999 39.8 59.2999 39.7 58.7999 39.5C58.1999 39.3 57.7999 39 57.2999 38.6C56.8999 38.2 56.4999 37.7 56.1999 37C55.8999 36.4 55.2999 36.1 54.6999 36.4C54.0999 36.7 53.7999 37.3 54.0999 37.9C54.4999 38.9 55.0999 39.7 55.7999 40.3C56.4999 40.9 57.2999 41.4 58.0999 41.7C58.3999 41.8 58.7999 41.9 59.1999 42V42.9C59.1999 43.5 59.6999 44.1 60.3999 44.1C60.9999 44.1 61.5999 43.6 61.5999 42.9V42.1C62.2999 42 62.9999 41.9 63.5999 41.6C64.4999 41.2 65.1999 40.7 65.7999 40.1C66.3999 39.5 66.7999 38.7 67.0999 37.9C67.3999 37.1 67.4999 36.3 67.4999 35.5C67.4999 34.2 67.1999 33.1 66.6999 32.3C65.7999 31.6 65.1999 30.9 64.3999 30.4Z" fill="#62355C"/>
<path opacity="0.2" d="M35.8999 40C39.7999 49.7 49.1999 56.5 60.2999 56.5C71.3999 56.5 80.6999 49.7 84.5999 40H35.8999Z" fill="#593055"/>
<path d="M97.8 49H22.8H15.3C11.2 49 7.80005 45.6 7.80005 41.5V64V109C7.80005 117.3 14.5 124 22.8 124H97.8C106.1 124 112.8 117.3 112.8 109V64C112.8 55.7 106 49 97.8 49Z" fill="#938993"/>
<path opacity="0.2" d="M19.8 109V64V49H15.3C11.2 49 7.80005 45.6 7.80005 41.5V64V109C7.80005 117.3 14.5 124 22.8 124H34.8C26.5 124 19.8 117.3 19.8 109Z" fill="#593055"/>
<path d="M97.8001 125.2H22.8001C13.8001 125.2 6.6001 117.9 6.6001 109V41.5C6.6001 40.8 7.2001 40.3 7.8001 40.3C8.4001 40.3 9.0001 40.8 9.0001 41.5C9.0001 44.9 11.8001 47.7 15.2001 47.7H97.7001C106.7 47.7 113.9 55 113.9 63.9V108.9C114 118 106.7 125.2 97.8001 125.2ZM9.0001 47.6V109C9.0001 116.6 15.2001 122.8 22.8001 122.8H97.8001C105.4 122.8 111.6 116.6 111.6 109V64C111.6 56.4 105.4 50.2 97.8001 50.2H15.2001C12.8001 50.2 10.6001 49.2 9.0001 47.6Z" fill="#62355C"/>
<path d="M112.8 71.5H104.9H98.2001C90.2001 71.5 83.3001 77.5 82.8001 85.5C82.3001 93.1 87.5001 99.6 94.6001 101.1H112.9C117 101.1 120.4 97.7 120.4 93.6V71.5V64C120.2 68.1 116.9 71.5 112.8 71.5Z" fill="#65C5B4"/>
<path d="M112.8 71.5H104.9H98.2C90.2 71.5 83.3 77.5 82.8 85.5C82.6 88.8 83.4 91.9 85 94.4C87.7 98.7 92.6 101.1 97.7 101.1H112.8C116.9 101.1 120.3 97.7 120.3 93.6V71.5V64C120.2 68.1 116.9 71.5 112.8 71.5Z" fill="#E8E8E8"/>
<path d="M112.8 102.4H97.7C92 102.4 86.7 99.6 83.9 95.1C82.1 92.2 81.3 88.9 81.5 85.5C82 77 89.4 70.3 98.2 70.3H112.8C116.2 70.3 119 67.5 119 64.1C119 63.4 119.6 62.9 120.2 62.9C120.8 62.9 121.4 63.5 121.4 64.1V93.8C121.5 98.5 117.6 102.4 112.8 102.4ZM98.1 72.8C90.6 72.8 84.4 78.4 83.9 85.7C83.7 88.6 84.4 91.4 85.9 93.9C88.3 97.7 92.7 100 97.6 100H112.7C116.1 100 118.9 97.2 118.9 93.8V70.1C117.3 71.7 115.1 72.7 112.7 72.7H98.1V72.8Z" fill="#62355C"/>
<path d="M97.7 94C101.842 94 105.2 90.6421 105.2 86.5C105.2 82.3579 101.842 79 97.7 79C93.5578 79 90.2 82.3579 90.2 86.5C90.2 90.6421 93.5578 94 97.7 94Z" fill="#FEE444"/>
<path d="M97.7 94C101.842 94 105.2 90.6421 105.2 86.5C105.2 82.3579 101.842 79 97.7 79C93.5578 79 90.2 82.3579 90.2 86.5C90.2 90.6421 93.5578 94 97.7 94Z" fill="#65C5B4"/>
<path d="M97.6999 95.2C92.8999 95.2 88.8999 91.3 88.8999 86.4C88.8999 81.5 92.7999 77.6 97.6999 77.6C102.6 77.6 106.5 81.5 106.5 86.4C106.5 91.3 102.5 95.2 97.6999 95.2ZM97.6999 80.2C94.2999 80.2 91.4999 83 91.4999 86.4C91.4999 89.8 94.2999 92.6 97.6999 92.6C101.1 92.6 103.9 89.8 103.9 86.4C103.9 83 101.1 80.2 97.6999 80.2Z" fill="#62355C"/>
<path d="M152.78 109V68.4H203.11C205.77 68.4 208.033 69.3567 209.9 71.27C211.813 73.1367 212.77 75.4 212.77 78.06V109H203.67V80.02C203.67 78.7133 203.577 77.99 203.39 77.85C203.203 77.6633 202.48 77.57 201.22 77.57H189.88C188.573 77.57 187.827 77.6633 187.64 77.85C187.5 77.99 187.43 78.7133 187.43 80.02V109H178.19V80.02C178.19 78.7133 178.097 77.99 177.91 77.85C177.77 77.6633 177.047 77.57 175.74 77.57H164.4C163.093 77.57 162.347 77.6633 162.16 77.85C162.02 77.99 161.95 78.7133 161.95 80.02V109H152.78ZM227.158 124.05V114.81H250.048C251.308 114.81 252.008 114.717 252.148 114.53C252.334 114.39 252.428 113.667 252.428 112.36V109H230.028C227.368 109 225.081 108.067 223.168 106.2C221.301 104.287 220.368 102 220.368 99.34V68.54H229.538V97.38C229.538 98.6867 229.608 99.4333 229.748 99.62C229.934 99.76 230.681 99.83 231.988 99.83H250.048C251.308 99.83 252.008 99.76 252.148 99.62C252.334 99.4333 252.428 98.6867 252.428 97.38V68.54H261.598V114.39C261.598 117.05 260.664 119.313 258.798 121.18C256.931 123.093 254.668 124.05 252.008 124.05H227.158ZM305.154 109L289.194 68.4H298.924L308.794 92.34L319.154 68.4H328.674L339.734 92.48L348.904 68.4H358.634L343.374 109H336.234L323.984 81.91L312.294 109H305.154ZM372.642 109C369.982 109 367.695 108.067 365.782 106.2C363.915 104.287 362.982 102 362.982 99.34V84.08H395.042V80.02C395.042 78.7133 394.948 77.99 394.762 77.85C394.622 77.6633 393.898 77.57 392.592 77.57H362.982V68.4H394.552C397.212 68.4 399.475 69.3567 401.342 71.27C403.255 73.1367 404.212 75.4 404.212 78.06V109H372.642ZM374.602 99.83H395.042V92.34H372.152V97.38C372.152 98.6867 372.222 99.4333 372.362 99.62C372.548 99.76 373.295 99.83 374.602 99.83ZM419.673 109C417.013 109 414.726 108.067 412.813 106.2C410.946 104.287 410.013 102 410.013 99.34V55.03H419.253V97.38C419.253 98.6867 419.323 99.4333 419.463 99.62C419.65 99.76 420.373 99.83 421.633 99.83H427.863V109H419.673ZM442.984 109C440.324 109 438.037 108.067 436.124 106.2C434.257 104.287 433.324 102 433.324 99.34V55.03H442.564V97.38C442.564 98.6867 442.634 99.4333 442.774 99.62C442.96 99.76 443.684 99.83 444.944 99.83H451.174V109H442.984ZM465.882 109C463.222 109 460.936 108.067 459.022 106.2C457.156 104.287 456.222 102 456.222 99.34V78.06C456.222 75.4 457.156 73.1367 459.022 71.27C460.936 69.3567 463.222 68.4 465.882 68.4H487.792C490.452 68.4 492.716 69.3567 494.582 71.27C496.496 73.1367 497.452 75.4 497.452 78.06V93.32H465.392V97.38C465.392 98.6867 465.462 99.4333 465.602 99.62C465.789 99.76 466.536 99.83 467.842 99.83H497.452V109H465.882ZM465.392 85.06H488.282V80.02C488.282 78.7133 488.189 77.99 488.002 77.85C487.862 77.6633 487.139 77.57 485.832 77.57H467.842C466.536 77.57 465.789 77.6633 465.602 77.85C465.462 77.99 465.392 78.7133 465.392 80.02V85.06ZM514.489 109C511.829 109 509.542 108.067 507.629 106.2C505.762 104.287 504.829 102 504.829 99.34V55.94H513.999V68.4H529.819V77.57H513.999V97.38C513.999 98.6867 514.069 99.4333 514.209 99.62C514.396 99.76 515.142 99.83 516.449 99.83H529.819V109H514.489Z" fill="white"/>
</svg>
